<?xml version="1.0" encoding="UTF-8"?>
<svg width="129px" height="46px" viewBox="0 0 129 46" version="1.1" xmlns="http://www.w3.org/2000/svg" xmlns:xlink="http://www.w3.org/1999/xlink">
    <!-- Generator: Sketch 48.2 (47327) - http://www.bohemiancoding.com/sketch -->
    <title>icon-50</title>
    <desc>Created with Sketch.</desc>
    <defs>
        <path d="M32.3187571,27.7514269 C31.8820322,26.8059665 31.6383843,25.7530282 31.6383843,24.6431828 C31.6383843,21.5847467 33.4886606,18.9584659 36.1309062,17.8226471 L17.4990301,17.8226471 C13.4007553,17.8226471 10.0784472,14.500339 10.0784472,10.4020643 C10.0784472,6.30378958 13.4007553,2.98148148 17.4990301,2.98148148 L65.3752205,2.98148148 C69.4734953,2.98148148 72.7958034,6.30378958 72.7958034,10.4020643 C72.7958034,11.4311751 72.586314,12.4113571 72.2076532,13.3022921 L117.996084,13.3022921 C122.094359,13.3022921 125.416667,16.6246002 125.416667,20.7228749 C125.416667,24.8211496 122.094359,28.1434577 117.996084,28.1434577 L93.479981,28.1434577 C92.2294693,30.4767786 89.7676438,32.0637656 86.9351576,32.0637656 L65.1723999,32.0637656 C65.6091249,33.009226 65.8527728,34.0621644 65.8527728,35.1720098 C65.8527728,39.2702845 62.5304647,42.5925926 58.43219,42.5925926 L10.5559995,42.5925926 C6.45772476,42.5925926 3.13541667,39.2702845 3.13541667,35.1720098 C3.13541667,31.073735 6.45772476,27.7514269 10.5559995,27.7514269 L32.3187571,27.7514269 Z" id="path-1"></path>
    </defs>
    <g id="Weather-App" stroke="none" stroke-width="1" fill="none" fill-rule="evenodd" transform="translate(-127.000000, -191.000000)">
        <g id="icon-50" transform="translate(127.000000, 191.000000)">
            <g id="fog-part">
                <g id="Combined-Shape" transform="translate(64.276042, 22.787037) rotate(-180.000000) translate(-64.276042, -22.787037) ">
                    <use fill="#DFE4EB" fill-rule="evenodd" xlink:href="#path-1"></use>
                    <path stroke="#F5F5F5" stroke-width="3.5" d="M29.9885073,26.0014269 C29.9221237,25.5549724 29.8883843,25.1012656 29.8883843,24.6431828 C29.8883843,22.7903444 30.4430791,21.039386 31.4165303,19.5726471 L17.4990301,19.5726471 C12.434257,19.5726471 8.32844724,15.4668373 8.32844724,10.4020643 C8.32844724,5.33729126 12.434257,1.23148148 17.4990301,1.23148148 L65.3752205,1.23148148 C70.4399936,1.23148148 74.5458034,5.33729126 74.5458034,10.4020643 C74.5458034,10.7891192 74.5217183,11.1731043 74.4741815,11.5522921 L117.996084,11.5522921 C123.060857,11.5522921 127.166667,15.6581019 127.166667,20.7228749 C127.166667,25.787648 123.060857,29.8934577 117.996084,29.8934577 L94.4553076,29.8934577 C92.7644585,32.314238 89.9817017,33.8137656 86.9351576,33.8137656 L67.5026498,33.8137656 C67.5690333,34.2602202 67.6027728,34.713927 67.6027728,35.1720098 C67.6027728,40.2367828 63.496963,44.3425926 58.43219,44.3425926 L10.5559995,44.3425926 C5.49122645,44.3425926 1.38541667,40.2367828 1.38541667,35.1720098 C1.38541667,30.1072367 5.49122645,26.0014269 10.5559995,26.0014269 L29.9885073,26.0014269 Z"></path>
                </g>
            </g>
        </g>
    </g>
</svg>