<?xml version="1.0" encoding="UTF-8"?>
<svg width="144px" height="114px" viewBox="0 0 144 114" version="1.1" xmlns="http://www.w3.org/2000/svg" xmlns:xlink="http://www.w3.org/1999/xlink">
    <!-- Generator: Sketch 48.2 (47327) - http://www.bohemiancoding.com/sketch -->
    <title>icon-02</title>
    <desc>Created with Sketch.</desc>
    <defs></defs>
    <g id="Weather-App" stroke="none" stroke-width="1" fill="none" fill-rule="evenodd" transform="translate(-107.000000, -169.000000)">
        <g id="icon-02" transform="translate(107.000000, 169.000000)">
            <g id="sun-icon" transform="translate(31.000000, 0.000000)">
                <g id="sun">
                    <circle fill="#F8E39D" cx="50.5" cy="50.5" r="50.5"></circle>
                    <circle fill="#FFD548" cx="51.5412371" cy="51.5412371" r="33.8402062"></circle>
                </g>
            </g>
            <g id="Cloud-wide-d" transform="translate(0.000000, 36.000000)" fill="#CED2D9" stroke="#FDFDFE">
                <g id="Cloud">
                    <path d="M64.4814557,17.5953649 C66.5170196,10.3402646 75.5229176,4.87302304 86.3246454,4.87302304 C98.456115,4.87302304 108.32239,11.7692037 108.593042,20.3491916 C125.570344,20.2530306 139.369616,28.2302508 139.546008,38.335723 C139.640913,43.7728314 135.773129,48.731852 129.536159,52.2306073 C130.76906,53.858657 131.474852,55.7496054 131.474852,57.7667083 C131.474852,63.8732501 125.006233,68.8235804 117.026786,68.8235804 C113.044397,68.8235804 109.438327,67.5905436 106.82489,65.5961243 C103.597958,68.3627332 99.3165939,70.6323575 94.3822064,71.9545226 C85.3829927,74.3658547 76.6891383,72.9619673 71.7757475,68.8919031 C70.5373537,69.4039912 69.2315234,69.8486005 67.8694549,70.2135657 C59.1360546,72.5536732 50.767794,70.9020921 46.9245672,66.5600996 C44.4943824,67.9801425 41.458111,68.8235804 38.1644246,68.8235804 C31.1209496,68.8235804 25.2546553,64.9664654 23.975358,59.8617128 C12.23766,56.4666794 4.45227009,50.5067223 4.45227009,43.7214924 C4.45227009,34.4218956 19.076718,26.6725306 38.4572136,24.952188 C40.0342459,20.3335757 47.7932974,16.8263982 57.1275116,16.8263982 C59.7352523,16.8263982 62.2200515,17.1001337 64.4814557,17.5953649 Z" id="Combined-Shape-Copy-3" stroke-width="9"></path>
                </g>
            </g>
        </g>
    </g>
</svg>