<?xml version="1.0" encoding="UTF-8"?>
<svg width="375px" height="223px" viewBox="0 0 375 223" version="1.1" xmlns="http://www.w3.org/2000/svg" xmlns:xlink="http://www.w3.org/1999/xlink">
    <!-- Generator: Sketch 48.2 (47327) - http://www.bohemiancoding.com/sketch -->
    <title>Boat-bg</title>
    <desc>Created with Sketch.</desc>
    <defs></defs>
    <g id="Weather-App" stroke="none" stroke-width="1" fill="none" fill-rule="evenodd" transform="translate(0.000000, -444.000000)">
        <g id="Boat-bg" transform="translate(-54.000000, 444.000000)">
            <path d="M314.499998,63 C319.643372,71.1008319 328.693854,76.4769695 339,76.4769695 C349.306146,76.4769695 358.356628,71.1008319 363.500002,63 C368.643375,71.1008334 377.693855,76.4769695 388,76.4769695 C397.979968,76.4769695 406.782496,71.435744 412,63.7608745 C417.217504,71.435744 426.020032,76.4769695 436,76.4769695 C446.306145,76.4769695 455.356625,71.1008334 460.5,63.0000036 C465.643372,71.1008319 474.693854,76.4769695 485,76.4769695 C494.979968,76.4769695 503.782496,71.435744 509,63.7608745 L509,292 L25,292 L25,66.3721951 C30.3184172,72.5588197 38.2016422,76.4769695 47,76.4769695 C56.9799684,76.4769695 65.7824956,71.435744 71,63.7608745 C76.2175044,71.435744 85.0200316,76.4769695 95,76.4769695 C105.306146,76.4769695 114.356628,71.1008319 119.500002,63 C124.643375,71.1008334 133.693855,76.4769695 144,76.4769695 C154.306145,76.4769695 163.356625,71.1008334 168.5,63.0000036 C173.643372,71.1008319 182.693854,76.4769695 193,76.4769695 C203.306145,76.4769695 212.356625,71.1008334 217.5,63.0000036 C222.643372,71.1008319 231.693854,76.4769695 242,76.4769695 C251.979968,76.4769695 260.782496,71.435744 266,63.7608745 C271.217504,71.435744 280.020032,76.4769695 290,76.4769695 C300.306145,76.4769695 309.356625,71.1008334 314.5,63.0000036 Z" id="Combined-Shape" fill="#5677AF"></path>
            <path d="M372.729167,97.5149615 L372.345324,98 L215.654676,98 L184,58 L224,58 L224,24 L228,24 L228,58 L250,58 L250,0 L254,0 L254,58 L288,58 L288,36 L306,36 L306,24 L316,24 L316,5 L324,5 L324,24 L334,24 L334,36 L352,36 L352,58 L385.568356,58 L372.729167,97.5149615 Z" id="Combined-Shape" fill="#344E7B"></path>
            <rect id="Rectangle-5" fill="#98B6DE" x="316" y="10" width="8" height="7"></rect>
            <path d="M289.499998,81.5230305 C294.643372,89.6238624 303.693854,95 314,95 C324.306146,95 333.356628,89.6238624 338.500002,81.5230305 C343.643375,89.623864 352.693855,95 363,95 C372.979968,95 381.782496,89.9587745 387,82.283905 C392.217504,89.9587745 401.020032,95 411,95 C421.306145,95 430.356625,89.623864 435.5,81.5230341 C440.643372,89.6238624 449.693854,95 460,95 C469.979968,95 478.782496,89.9587745 484,82.283905 L484,303.523031 L0,303.523031 L0,84.8952256 C5.31841723,91.0818503 13.2016422,95 22,95 C31.9799684,95 40.7824956,89.9587745 46,82.283905 C51.2175044,89.9587745 60.0200316,95 70,95 C80.3061461,95 89.356628,89.6238624 94.5000023,81.5230305 C99.6433747,89.623864 108.693855,95 119,95 C129.306145,95 138.356625,89.623864 143.5,81.5230341 C148.643372,89.6238624 157.693854,95 168,95 C178.306145,95 187.356625,89.623864 192.5,81.5230341 C197.643372,89.6238624 206.693854,95 217,95 C226.979968,95 235.782496,89.9587745 241,82.283905 C246.217504,89.9587745 255.020032,95 265,95 C275.306145,95 284.356625,89.623864 289.5,81.5230341 Z" id="Combined-Shape" fill="#98B6DE"></path>
            <circle id="Oval-7" stroke="#98B6DE" stroke-width="2" fill="#EFEFEF" cx="300.5" cy="47.5" r="5.5"></circle>
            <circle id="Oval-7" stroke="#98B6DE" stroke-width="2" fill="#EFEFEF" cx="319.5" cy="47.5" r="5.5"></circle>
            <circle id="Oval-7" stroke="#98B6DE" stroke-width="2" fill="#EFEFEF" cx="338.5" cy="47.5" r="5.5"></circle>
            <rect id="Rectangle-15" fill="#98B6DE" x="183" y="57" width="204" height="4"></rect>
            <rect id="Rectangle-15" fill="#98B6DE" x="287" y="34" width="66" height="2"></rect>
            <rect id="Rectangle-15" fill="#98B6DE" x="305" y="23" width="30" height="2"></rect>
        </g>
    </g>
</svg>