<?xml version="1.0" encoding="UTF-8"?>
<svg width="375px" height="285px" viewBox="0 0 375 285" version="1.1" xmlns="http://www.w3.org/2000/svg" xmlns:xlink="http://www.w3.org/1999/xlink">
    <!-- Generator: Sketch 48.1 (47250) - http://www.bohemiancoding.com/sketch -->
    <title>houseandmountain</title>
    <desc>Created with Sketch.</desc>
    <defs>
        <rect id="path-1" x="197" y="34" width="11" height="12"></rect>
        <filter x="-95.5%" y="-87.5%" width="290.9%" height="275.0%" filterUnits="objectBoundingBox" id="filter-2">
            <feMorphology radius="0.5" operator="dilate" in="SourceAlpha" result="shadowSpreadOuter1"></feMorphology>
            <feOffset dx="0" dy="0" in="shadowSpreadOuter1" result="shadowOffsetOuter1"></feOffset>
            <feGaussianBlur stdDeviation="3" in="shadowOffsetOuter1" result="shadowBlurOuter1"></feGaussianBlur>
            <feColorMatrix values="0 0 0 0 1   0 0 0 0 0.905882353   0 0 0 0 0.729411765  0 0 0 1 0" type="matrix" in="shadowBlurOuter1"></feColorMatrix>
        </filter>
        <rect id="path-3" x="197" y="34" width="11" height="12"></rect>
        <filter x="-95.5%" y="-87.5%" width="290.9%" height="275.0%" filterUnits="objectBoundingBox" id="filter-4">
            <feMorphology radius="0.5" operator="dilate" in="SourceAlpha" result="shadowSpreadOuter1"></feMorphology>
            <feOffset dx="0" dy="0" in="shadowSpreadOuter1" result="shadowOffsetOuter1"></feOffset>
            <feGaussianBlur stdDeviation="3" in="shadowOffsetOuter1" result="shadowBlurOuter1"></feGaussianBlur>
            <feColorMatrix values="0 0 0 0 1   0 0 0 0 0.905882353   0 0 0 0 0.729411765  0 0 0 1 0" type="matrix" in="shadowBlurOuter1"></feColorMatrix>
        </filter>
        <rect id="path-5" x="225" y="34" width="11" height="12"></rect>
        <filter x="-95.5%" y="-87.5%" width="290.9%" height="275.0%" filterUnits="objectBoundingBox" id="filter-6">
            <feMorphology radius="0.5" operator="dilate" in="SourceAlpha" result="shadowSpreadOuter1"></feMorphology>
            <feOffset dx="0" dy="0" in="shadowSpreadOuter1" result="shadowOffsetOuter1"></feOffset>
            <feGaussianBlur stdDeviation="3" in="shadowOffsetOuter1" result="shadowBlurOuter1"></feGaussianBlur>
            <feColorMatrix values="0 0 0 0 1   0 0 0 0 0.905882353   0 0 0 0 0.729411765  0 0 0 1 0" type="matrix" in="shadowBlurOuter1"></feColorMatrix>
        </filter>
        <rect id="path-7" x="225" y="34" width="11" height="12"></rect>
        <filter x="-95.5%" y="-87.5%" width="290.9%" height="275.0%" filterUnits="objectBoundingBox" id="filter-8">
            <feMorphology radius="0.5" operator="dilate" in="SourceAlpha" result="shadowSpreadOuter1"></feMorphology>
            <feOffset dx="0" dy="0" in="shadowSpreadOuter1" result="shadowOffsetOuter1"></feOffset>
            <feGaussianBlur stdDeviation="3" in="shadowOffsetOuter1" result="shadowBlurOuter1"></feGaussianBlur>
            <feColorMatrix values="0 0 0 0 1   0 0 0 0 0.905882353   0 0 0 0 0.729411765  0 0 0 1 0" type="matrix" in="shadowBlurOuter1"></feColorMatrix>
        </filter>
    </defs>
    <g id="Weather-App" stroke="none" stroke-width="1" fill="none" fill-rule="evenodd" transform="translate(0.000000, -382.000000)">
        <g id="houseandmountain" transform="translate(-9.000000, 382.000000)">
            <path d="M185,30 L216.5,6 L248,30 L248,101 L185,101 L185,30 Z" id="Combined-Shape-Copy" fill="#375486"></path>
            <path d="M189,20.9744227 L189,7 L197,7 L197,14.8791846 L216.52893,0 L255.091499,29.3810047 L251.470106,33 L181.668203,32.9846566 L251.416547,32.9846566 L216.52893,6.3432032 L181.655688,32.9736788 L178,29.3553751 L189,20.9744227 Z" id="Combined-Shape" fill="#98B6DE"></path>
            <path d="M0.1328125,153.40625 C0.1328125,153.40625 25.0078125,154.496094 47.6992187,134.191406 C70.390625,113.886719 61.6601562,108.851562 80.2617187,98.9414062 C98.8632812,89.03125 91.2815148,98.9414062 98.8632812,108.851562 C106.445048,118.761719 115.804687,127.238281 118.835937,134.191406 C121.867187,141.144531 134.718963,158.015625 141.078125,158.015625 C147.437287,158.015625 153.184339,148.39964 156.938245,141.285731 C159.641634,136.162623 168.471317,113.517126 172.874524,108.851562 C188.608899,92.1796875 177.90625,89.0234375 184.175781,87.203125 C188.355469,85.9895833 197.102865,86.5963542 210.417969,89.0234375 C217.980469,94.8463542 223.841146,94.2395833 228,87.203125 C234.238281,76.6484375 236.886719,72.1484375 241.027344,67.0703125 C245.167969,61.9921875 249.631384,53.3531495 255.025228,53.3531495 C258.621123,53.3531495 263.972089,57.9255372 271.078125,67.0703125 C271.078125,74.3362555 273.376302,79.641102 277.972656,82.984852 C284.867187,88.000477 291.953125,108.851562 309.652344,108.851562 C327.351563,108.851562 322.378906,111.814001 343.753906,105.377703 C365.128906,98.9414062 366.605469,110.292969 372.261719,116.097656 C376.032552,119.967448 380.561198,125.998698 385.847656,134.191406 L393.128102,145.835963 L393.128102,285 L0.1328125,285 C0.1328125,197.270833 0.1328125,153.40625 0.1328125,153.40625 Z" id="Path" fill="#5677AF"></path>
            <path d="" id="Path-3" stroke="#979797"></path>
            <g id="Rectangle-3">
                <use fill="black" fill-opacity="1" filter="url(#filter-2)" xlink:href="#path-1"></use>
                <use fill="#FFE7BA" fill-rule="evenodd" xlink:href="#path-1"></use>
            </g>
            <g id="Rectangle-3">
                <use fill="black" fill-opacity="1" filter="url(#filter-4)" xlink:href="#path-3"></use>
                <use fill="#FFE7BA" fill-rule="evenodd" xlink:href="#path-3"></use>
            </g>
            <g id="Rectangle-3-Copy">
                <use fill="black" fill-opacity="1" filter="url(#filter-6)" xlink:href="#path-5"></use>
                <use fill="#FFE7BA" fill-rule="evenodd" xlink:href="#path-5"></use>
            </g>
            <g id="Rectangle-3-Copy">
                <use fill="black" fill-opacity="1" filter="url(#filter-8)" xlink:href="#path-7"></use>
                <use fill="#FFE7BA" fill-rule="evenodd" xlink:href="#path-7"></use>
            </g>
        </g>
    </g>
</svg>