<?xml version="1.0" encoding="UTF-8"?>
<svg width="375px" height="321px" viewBox="0 0 375 321" version="1.1" xmlns="http://www.w3.org/2000/svg" xmlns:xlink="http://www.w3.org/1999/xlink">
    <!-- Generator: Sketch 48.1 (47250) - http://www.bohemiancoding.com/sketch -->
    <title>houseandmountain</title>
    <desc>Created with Sketch.</desc>
    <defs>
        <rect id="path-1" x="235" y="110" width="11" height="12"></rect>
        <filter x="-95.5%" y="-87.5%" width="290.9%" height="275.0%" filterUnits="objectBoundingBox" id="filter-2">
            <feMorphology radius="0.5" operator="dilate" in="SourceAlpha" result="shadowSpreadOuter1"></feMorphology>
            <feOffset dx="0" dy="0" in="shadowSpreadOuter1" result="shadowOffsetOuter1"></feOffset>
            <feGaussianBlur stdDeviation="3" in="shadowOffsetOuter1" result="shadowBlurOuter1"></feGaussianBlur>
            <feColorMatrix values="0 0 0 0 1   0 0 0 0 0.905882353   0 0 0 0 0.729411765  0 0 0 1 0" type="matrix" in="shadowBlurOuter1"></feColorMatrix>
        </filter>
        <rect id="path-3" x="235" y="110" width="11" height="12"></rect>
        <filter x="-95.5%" y="-87.5%" width="290.9%" height="275.0%" filterUnits="objectBoundingBox" id="filter-4">
            <feMorphology radius="0.5" operator="dilate" in="SourceAlpha" result="shadowSpreadOuter1"></feMorphology>
            <feOffset dx="0" dy="0" in="shadowSpreadOuter1" result="shadowOffsetOuter1"></feOffset>
            <feGaussianBlur stdDeviation="3" in="shadowOffsetOuter1" result="shadowBlurOuter1"></feGaussianBlur>
            <feColorMatrix values="0 0 0 0 1   0 0 0 0 0.905882353   0 0 0 0 0.729411765  0 0 0 1 0" type="matrix" in="shadowBlurOuter1"></feColorMatrix>
        </filter>
        <rect id="path-5" x="263" y="110" width="11" height="12"></rect>
        <filter x="-95.5%" y="-87.5%" width="290.9%" height="275.0%" filterUnits="objectBoundingBox" id="filter-6">
            <feMorphology radius="0.5" operator="dilate" in="SourceAlpha" result="shadowSpreadOuter1"></feMorphology>
            <feOffset dx="0" dy="0" in="shadowSpreadOuter1" result="shadowOffsetOuter1"></feOffset>
            <feGaussianBlur stdDeviation="3" in="shadowOffsetOuter1" result="shadowBlurOuter1"></feGaussianBlur>
            <feColorMatrix values="0 0 0 0 1   0 0 0 0 0.905882353   0 0 0 0 0.729411765  0 0 0 1 0" type="matrix" in="shadowBlurOuter1"></feColorMatrix>
        </filter>
        <rect id="path-7" x="263" y="110" width="11" height="12"></rect>
        <filter x="-95.5%" y="-87.5%" width="290.9%" height="275.0%" filterUnits="objectBoundingBox" id="filter-8">
            <feMorphology radius="0.5" operator="dilate" in="SourceAlpha" result="shadowSpreadOuter1"></feMorphology>
            <feOffset dx="0" dy="0" in="shadowSpreadOuter1" result="shadowOffsetOuter1"></feOffset>
            <feGaussianBlur stdDeviation="3" in="shadowOffsetOuter1" result="shadowBlurOuter1"></feGaussianBlur>
            <feColorMatrix values="0 0 0 0 1   0 0 0 0 0.905882353   0 0 0 0 0.729411765  0 0 0 1 0" type="matrix" in="shadowBlurOuter1"></feColorMatrix>
        </filter>
    </defs>
    <g id="Weather-App" stroke="none" stroke-width="1" fill="none" fill-rule="evenodd" transform="translate(0.000000, -346.000000)">
        <g id="houseandmountain" transform="translate(-47.000000, 346.000000)">
            <path d="M223,106 L254.5,82 L286,106 L286,177 L223,177 L223,106 Z" id="Combined-Shape-Copy" fill="#375486"></path>
            <path d="M227,96.9744227 L227,83 L235,83 L235,90.8791846 L254.52893,76 L293.091499,105.381005 L289.470106,109 L219.668203,108.984657 L289.416547,108.984657 L254.52893,82.3432032 L219.655688,108.973679 L216,105.355375 L227,96.9744227 Z" id="Combined-Shape" fill="#98B6DE"></path>
            <path d="M451.554983,86.6533237 C442.584783,62.8065802 409.4791,61.340421 409.4791,37.0028189 C409.4791,12.6652169 393.062607,-3.83148088 381.253128,1.84387081 C369.443648,7.51922251 366.075011,17.8785841 352.193017,22.363684 C338.311023,26.8487838 352.36947,63.0054902 316.251262,63.4321843 C280.133054,63.8588783 274.993476,41.4879188 265.946279,37.0028189 C256.899082,32.5177191 228.631403,27.0615365 206.205904,40.6922788 C183.780404,54.323021 134.348059,86.502537 109.42656,80.8688923 C84.5050607,75.2352475 89.9012967,49.8379211 69.2050311,40.6922788 C48.5087656,31.5466364 38.3162317,37.0028189 28.8744228,37.0028189 C22.5798835,37.0028189 13.1958226,38.2326389 0.72224012,40.6922788 L0.72224012,369.779263 L451.554983,365.727274 C457.535116,195.575803 457.535116,102.551153 451.554983,86.6533237 Z" id="Path-2" fill-opacity="0.1" fill="#375486"></path>
            <path d="M38.1328125,229.40625 C38.1328125,229.40625 63.0078125,230.496094 85.6992187,210.191406 C108.390625,189.886719 99.6601562,184.851562 118.261719,174.941406 C136.863281,165.03125 129.281515,174.941406 136.863281,184.851562 C144.445048,194.761719 153.804687,203.238281 156.835937,210.191406 C159.867187,217.144531 172.718963,234.015625 179.078125,234.015625 C185.437287,234.015625 191.184339,224.39964 194.938245,217.285731 C197.641634,212.162623 206.471317,189.517126 210.874524,184.851562 C226.608899,168.179688 215.90625,165.023437 222.175781,163.203125 C226.355469,161.989583 235.102865,162.596354 248.417969,165.023437 C255.980469,170.846354 261.841146,170.239583 266,163.203125 C272.238281,152.648437 274.886719,148.148438 279.027344,143.070312 C283.167969,137.992188 287.631384,129.35315 293.025228,129.35315 C296.621123,129.35315 301.972089,133.925537 309.078125,143.070312 C309.078125,150.336256 311.376302,155.641102 315.972656,158.984852 C322.867187,164.000477 329.953125,184.851562 347.652344,184.851562 C365.351563,184.851562 360.378906,187.814001 381.753906,181.377703 C403.128906,174.941406 404.605469,186.292969 410.261719,192.097656 C414.032552,195.967448 418.561198,201.998698 423.847656,210.191406 L431.128102,221.835963 L431.128102,361 L38.1328125,361 C38.1328125,273.270833 38.1328125,229.40625 38.1328125,229.40625 Z" id="Path" fill="#5677AF"></path>
            <path d="" id="Path-3" stroke="#979797"></path>
            <g id="Rectangle-3">
                <use fill="black" fill-opacity="1" filter="url(#filter-2)" xlink:href="#path-1"></use>
                <use fill="#FFE7BA" fill-rule="evenodd" xlink:href="#path-1"></use>
            </g>
            <g id="Rectangle-3">
                <use fill="black" fill-opacity="1" filter="url(#filter-4)" xlink:href="#path-3"></use>
                <use fill="#FFE7BA" fill-rule="evenodd" xlink:href="#path-3"></use>
            </g>
            <g id="Rectangle-3-Copy">
                <use fill="black" fill-opacity="1" filter="url(#filter-6)" xlink:href="#path-5"></use>
                <use fill="#FFE7BA" fill-rule="evenodd" xlink:href="#path-5"></use>
            </g>
            <g id="Rectangle-3-Copy">
                <use fill="black" fill-opacity="1" filter="url(#filter-8)" xlink:href="#path-7"></use>
                <use fill="#FFE7BA" fill-rule="evenodd" xlink:href="#path-7"></use>
            </g>
            <g id="trees" transform="translate(60.000000, 63.000000)" fill="#375486">
                <g id="Group" transform="translate(45.000000, 0.000000)">
                    <path d="M27,90 L27,111 L18,111 L18,90 L0,90 L22,0 L44,90 L27,90 Z" id="Combined-Shape"></path>
                </g>
                <g id="Group" transform="translate(0.000000, 80.000000)">
                    <path d="M20.25,67.2972973 L20.25,83 L13.5,83 L13.5,67.2972973 L0,67.2972973 L16.5,0 L33,67.2972973 L20.25,67.2972973 Z" id="Combined-Shape"></path>
                </g>
                <g id="Group" transform="translate(45.000000, 134.000000)">
                    <path d="M17.7954545,60 L17.7954545,74 L11.8636364,74 L11.8636364,60 L0,60 L14.5,0 L29,60 L17.7954545,60 Z" id="Combined-Shape"></path>
                </g>
                <g id="Group" transform="translate(89.000000, 93.000000)">
                    <path d="M19.0227273,63.2432432 L19.0227273,78 L12.6818182,78 L12.6818182,63.2432432 L0,63.2432432 L15.5,0 L31,63.2432432 L19.0227273,63.2432432 Z" id="Combined-Shape"></path>
                </g>
                <g id="Group" transform="translate(259.000000, 80.000000)">
                    <path d="M16.5681818,55.1351351 L16.5681818,68 L11.0454545,68 L11.0454545,55.1351351 L0,55.1351351 L13.5,0 L27,55.1351351 L16.5681818,55.1351351 Z" id="Combined-Shape"></path>
                </g>
                <g id="Group" transform="translate(286.000000, 108.000000)">
                    <path d="M19.0227273,64.8648649 L19.0227273,80 L12.6818182,80 L12.6818182,64.8648649 L0,64.8648649 L15.5,0 L31,64.8648649 L19.0227273,64.8648649 Z" id="Combined-Shape"></path>
                </g>
                <g id="Group" transform="translate(222.000000, 127.000000)">
                    <path d="M19.6363636,65.6756757 L19.6363636,81 L13.0909091,81 L13.0909091,65.6756757 L0,65.6756757 L16,0 L32,65.6756757 L19.6363636,65.6756757 Z" id="Combined-Shape"></path>
                </g>
                <g id="Group" transform="translate(314.000000, 47.000000)">
                    <path d="M20.25,67.2972973 L20.25,83 L13.5,83 L13.5,67.2972973 L0,67.2972973 L16.5,0 L33,67.2972973 L20.25,67.2972973 Z" id="Combined-Shape"></path>
                </g>
            </g>
        </g>
    </g>
</svg>