<?xml version="1.0" encoding="UTF-8"?>
<svg width="375px" height="320px" viewBox="0 0 375 320" version="1.1" xmlns="http://www.w3.org/2000/svg" xmlns:xlink="http://www.w3.org/1999/xlink">
    <!-- Generator: Sketch 48.1 (47250) - http://www.bohemiancoding.com/sketch -->
    <title>houseandmountain</title>
    <desc>Created with Sketch.</desc>
    <defs>
        <rect id="path-1" x="235" y="110" width="11" height="12"></rect>
        <filter x="-95.5%" y="-87.5%" width="290.9%" height="275.0%" filterUnits="objectBoundingBox" id="filter-2">
            <feMorphology radius="0.5" operator="dilate" in="SourceAlpha" result="shadowSpreadOuter1"></feMorphology>
            <feOffset dx="0" dy="0" in="shadowSpreadOuter1" result="shadowOffsetOuter1"></feOffset>
            <feGaussianBlur stdDeviation="3" in="shadowOffsetOuter1" result="shadowBlurOuter1"></feGaussianBlur>
            <feColorMatrix values="0 0 0 0 1   0 0 0 0 0.905882353   0 0 0 0 0.729411765  0 0 0 1 0" type="matrix" in="shadowBlurOuter1"></feColorMatrix>
        </filter>
        <rect id="path-3" x="235" y="110" width="11" height="12"></rect>
        <filter x="-95.5%" y="-87.5%" width="290.9%" height="275.0%" filterUnits="objectBoundingBox" id="filter-4">
            <feMorphology radius="0.5" operator="dilate" in="SourceAlpha" result="shadowSpreadOuter1"></feMorphology>
            <feOffset dx="0" dy="0" in="shadowSpreadOuter1" result="shadowOffsetOuter1"></feOffset>
            <feGaussianBlur stdDeviation="3" in="shadowOffsetOuter1" result="shadowBlurOuter1"></feGaussianBlur>
            <feColorMatrix values="0 0 0 0 1   0 0 0 0 0.905882353   0 0 0 0 0.729411765  0 0 0 1 0" type="matrix" in="shadowBlurOuter1"></feColorMatrix>
        </filter>
        <rect id="path-5" x="263" y="110" width="11" height="12"></rect>
        <filter x="-95.5%" y="-87.5%" width="290.9%" height="275.0%" filterUnits="objectBoundingBox" id="filter-6">
            <feMorphology radius="0.5" operator="dilate" in="SourceAlpha" result="shadowSpreadOuter1"></feMorphology>
            <feOffset dx="0" dy="0" in="shadowSpreadOuter1" result="shadowOffsetOuter1"></feOffset>
            <feGaussianBlur stdDeviation="3" in="shadowOffsetOuter1" result="shadowBlurOuter1"></feGaussianBlur>
            <feColorMatrix values="0 0 0 0 1   0 0 0 0 0.905882353   0 0 0 0 0.729411765  0 0 0 1 0" type="matrix" in="shadowBlurOuter1"></feColorMatrix>
        </filter>
        <rect id="path-7" x="263" y="110" width="11" height="12"></rect>
        <filter x="-95.5%" y="-87.5%" width="290.9%" height="275.0%" filterUnits="objectBoundingBox" id="filter-8">
            <feMorphology radius="0.5" operator="dilate" in="SourceAlpha" result="shadowSpreadOuter1"></feMorphology>
            <feOffset dx="0" dy="0" in="shadowSpreadOuter1" result="shadowOffsetOuter1"></feOffset>
            <feGaussianBlur stdDeviation="3" in="shadowOffsetOuter1" result="shadowBlurOuter1"></feGaussianBlur>
            <feColorMatrix values="0 0 0 0 1   0 0 0 0 0.905882353   0 0 0 0 0.729411765  0 0 0 1 0" type="matrix" in="shadowBlurOuter1"></feColorMatrix>
        </filter>
    </defs>
    <g id="Weather-App" stroke="none" stroke-width="1" fill="none" fill-rule="evenodd" transform="translate(0.000000, -347.000000)">
        <g id="houseandmountain" transform="translate(-47.000000, 346.000000)">
            <path d="M451.832743,86.9310658 C442.862543,63.0843223 409.756859,61.6181631 409.756859,37.2805611 C409.756859,12.942959 393.340367,-3.55373876 381.530888,2.12161294 C369.721408,7.79696463 366.352771,18.1563262 352.470777,22.6414261 C338.588783,27.126526 352.647229,63.2832324 316.529022,63.7099264 C280.410814,64.1366205 275.271236,41.7656609 266.224039,37.2805611 C257.176842,32.7954612 228.909163,27.3392787 206.483664,40.9700209 C184.058164,54.6007631 134.625819,86.7802792 109.70432,81.1466344 C84.7828206,75.5129897 90.1790566,50.1156633 69.482791,40.9700209 C48.7865255,31.8243785 38.5939916,37.2805611 29.1521827,37.2805611 C22.8576434,37.2805611 13.4735825,38.510381 1,40.9700209 L1,370.057005 L451.832743,366.005016 C457.812876,195.853545 457.812876,102.828895 451.832743,86.9310658 Z" id="Path-2" fill="#25334B"></path>
            <path d="M223,106 L254.5,82 L286,106 L286,177 L223,177 L223,106 Z" id="Combined-Shape-Copy" fill="#375486"></path>
            <path d="M227,96.9744227 L227,83 L235,83 L235,90.8791846 L254.52893,76 L293.091499,105.381005 L289.470106,109 L219.668203,108.984657 L289.416547,108.984657 L254.52893,82.3432032 L219.655688,108.973679 L216,105.355375 L227,96.9744227 Z" id="Combined-Shape" fill="#98B6DE"></path>
            <path d="M38.1328125,229.40625 C38.1328125,229.40625 63.0078125,230.496094 85.6992187,210.191406 C108.390625,189.886719 99.6601562,184.851562 118.261719,174.941406 C136.863281,165.03125 129.281515,174.941406 136.863281,184.851562 C144.445048,194.761719 153.804687,203.238281 156.835937,210.191406 C159.867187,217.144531 172.718963,234.015625 179.078125,234.015625 C185.437287,234.015625 191.184339,224.39964 194.938245,217.285731 C197.641634,212.162623 206.471317,189.517126 210.874524,184.851562 C226.608899,168.179688 215.90625,165.023437 222.175781,163.203125 C226.355469,161.989583 235.102865,162.596354 248.417969,165.023437 C255.980469,170.846354 261.841146,170.239583 266,163.203125 C272.238281,152.648437 274.886719,148.148438 279.027344,143.070312 C283.167969,137.992188 287.631384,129.35315 293.025228,129.35315 C296.621123,129.35315 301.972089,133.925537 309.078125,143.070312 C309.078125,150.336256 311.376302,155.641102 315.972656,158.984852 C322.867187,164.000477 329.953125,184.851562 347.652344,184.851562 C365.351563,184.851562 360.378906,187.814001 381.753906,181.377703 C403.128906,174.941406 404.605469,186.292969 410.261719,192.097656 C414.032552,195.967448 418.561198,201.998698 423.847656,210.191406 L431.128102,221.835963 L431.128102,361 L38.1328125,361 C38.1328125,273.270833 38.1328125,229.40625 38.1328125,229.40625 Z" id="Path" fill="#5677AF"></path>
            <path d="" id="Path-3" stroke="#979797"></path>
            <g id="Rectangle-3">
                <use fill="black" fill-opacity="1" filter="url(#filter-2)" xlink:href="#path-1"></use>
                <use fill="#FFE7BA" fill-rule="evenodd" xlink:href="#path-1"></use>
            </g>
            <g id="Rectangle-3">
                <use fill="black" fill-opacity="1" filter="url(#filter-4)" xlink:href="#path-3"></use>
                <use fill="#FFE7BA" fill-rule="evenodd" xlink:href="#path-3"></use>
            </g>
            <g id="Rectangle-3-Copy">
                <use fill="black" fill-opacity="1" filter="url(#filter-6)" xlink:href="#path-5"></use>
                <use fill="#FFE7BA" fill-rule="evenodd" xlink:href="#path-5"></use>
            </g>
            <g id="Rectangle-3-Copy">
                <use fill="black" fill-opacity="1" filter="url(#filter-8)" xlink:href="#path-7"></use>
                <use fill="#FFE7BA" fill-rule="evenodd" xlink:href="#path-7"></use>
            </g>
            <g id="trees" transform="translate(60.000000, 63.000000)" fill="#375486">
                <g id="Group" transform="translate(45.000000, 0.000000)">
                    <path d="M27,90 L27,111 L18,111 L18,90 L0,90 L22,0 L44,90 L27,90 Z" id="Combined-Shape"></path>
                </g>
                <g id="Group" transform="translate(0.000000, 80.000000)">
                    <path d="M20.25,67.2972973 L20.25,83 L13.5,83 L13.5,67.2972973 L0,67.2972973 L16.5,0 L33,67.2972973 L20.25,67.2972973 Z" id="Combined-Shape"></path>
                </g>
                <g id="Group" transform="translate(45.000000, 134.000000)">
                    <path d="M17.7954545,60 L17.7954545,74 L11.8636364,74 L11.8636364,60 L0,60 L14.5,0 L29,60 L17.7954545,60 Z" id="Combined-Shape"></path>
                </g>
                <g id="Group" transform="translate(89.000000, 93.000000)">
                    <path d="M19.0227273,63.2432432 L19.0227273,78 L12.6818182,78 L12.6818182,63.2432432 L0,63.2432432 L15.5,0 L31,63.2432432 L19.0227273,63.2432432 Z" id="Combined-Shape"></path>
                </g>
                <g id="Group" transform="translate(259.000000, 80.000000)">
                    <path d="M16.5681818,55.1351351 L16.5681818,68 L11.0454545,68 L11.0454545,55.1351351 L0,55.1351351 L13.5,0 L27,55.1351351 L16.5681818,55.1351351 Z" id="Combined-Shape"></path>
                </g>
                <g id="Group" transform="translate(286.000000, 108.000000)">
                    <path d="M19.0227273,64.8648649 L19.0227273,80 L12.6818182,80 L12.6818182,64.8648649 L0,64.8648649 L15.5,0 L31,64.8648649 L19.0227273,64.8648649 Z" id="Combined-Shape"></path>
                </g>
                <g id="Group" transform="translate(222.000000, 127.000000)">
                    <path d="M19.6363636,65.6756757 L19.6363636,81 L13.0909091,81 L13.0909091,65.6756757 L0,65.6756757 L16,0 L32,65.6756757 L19.6363636,65.6756757 Z" id="Combined-Shape"></path>
                </g>
                <g id="Group" transform="translate(314.000000, 47.000000)">
                    <path d="M20.25,67.2972973 L20.25,83 L13.5,83 L13.5,67.2972973 L0,67.2972973 L16.5,0 L33,67.2972973 L20.25,67.2972973 Z" id="Combined-Shape"></path>
                </g>
            </g>
        </g>
    </g>
</svg>