<?xml version="1.0" encoding="UTF-8"?>
<svg width="209px" height="421px" viewBox="0 0 209 421" version="1.1" xmlns="http://www.w3.org/2000/svg" xmlns:xlink="http://www.w3.org/1999/xlink">
    <!-- Generator: Sketch 48.2 (47327) - http://www.bohemiancoding.com/sketch -->
    <title>Page 1</title>
    <desc>Created with Sketch.</desc>
    <defs>
        <polygon id="path-1" points="0 0.4335 208.8769 0.4335 208.8769 420.9995 0 420.9995"></polygon>
    </defs>
    <g id="Page-1" stroke="none" stroke-width="1" fill="none" fill-rule="evenodd">
        <g transform="translate(0.000000, -1.000000)">
            <g id="Group-3" transform="translate(0.000000, 0.567000)">
                <mask id="mask-2" fill="white">
                    <use xlink:href="#path-1"></use>
                </mask>
                <g id="Clip-2"></g>
                <path d="M207.8139,81.2225 L207.6009,81.2225 L207.6009,23.7795 C207.6009,10.9065 197.1149,0.4335 184.2259,0.4335 L24.6509,0.4335 C11.7619,0.4335 1.2749,10.9065 1.2749,23.7795 L1.2749,50.0745 L1.0629,50.0745 C0.4779,50.0745 -0.0001,50.5525 -0.0001,51.1375 L-0.0001,64.9475 C-0.0001,65.5315 0.4779,66.1165 1.0629,66.1165 L1.2749,66.1165 L1.2749,81.2615 L1.0629,81.2615 C0.4779,81.2615 -0.0001,81.7405 -0.0001,82.3245 L-0.0001,107.0535 C-0.0001,107.6385 0.4779,108.2225 1.0629,108.2225 L1.2749,108.2225 L1.2749,114.0435 L1.0629,114.0435 C0.4779,114.0435 -0.0001,114.5215 -0.0001,115.1055 L-0.0001,138.9915 C-0.0001,139.5755 0.4779,140.1605 1.0629,140.1605 L1.2749,140.1605 L1.2749,397.6955 C1.2749,410.5455 11.7619,420.9995 24.6509,420.9995 L184.2259,420.9995 C197.1149,420.9995 207.6009,410.5455 207.6009,397.6955 L207.6009,107.3395 L207.8139,107.3395 C208.3979,107.3395 208.8769,106.8615 208.8769,106.2765 L208.8769,82.3915 C208.8769,81.8065 208.3979,81.2225 207.8139,81.2225" id="Fill-1" fill="#323232" mask="url(#mask-2)"></path>
            </g>
            <path d="M193.9415,372.3238 L14.9355,372.3238 C14.3855,372.3238 13.9355,371.8738 13.9355,371.3238 L13.9355,50.4488 C13.9355,49.8988 14.3855,49.4488 14.9355,49.4488 L193.9415,49.4488 C194.4915,49.4488 194.9415,49.8988 194.9415,50.4488 L194.9415,371.3238 C194.9415,371.8738 194.4915,372.3238 193.9415,372.3238" id="Fill-4" fill="#FEFEFE"></path>
            <path d="M24.6546,6.0983 C19.7156,6.0983 15.0526,8.0373 11.5246,11.5573 C8.0026,15.0713 6.0626,19.7263 6.0626,24.6653 L6.0626,397.2273 C6.0626,402.1553 8.0026,406.8043 11.5246,410.3193 C15.4996,414.2853 20.1626,416.4683 24.6546,416.4683 L184.2216,416.4683 C188.7146,416.4683 193.3776,414.2853 197.3516,410.3193 C200.8736,406.8043 202.8136,402.1553 202.8136,397.2273 L202.8136,24.6653 C202.8136,19.7263 200.8736,15.0713 197.3516,11.5573 C193.8246,8.0373 189.1616,6.0983 184.2216,6.0983 L24.6546,6.0983 Z M184.2216,417.3243 L24.6546,417.3243 C14.1136,417.3243 5.2086,408.1203 5.2086,397.2273 L5.2086,24.6653 C5.2086,13.9563 13.9316,5.2443 24.6546,5.2443 L184.2216,5.2443 C194.9446,5.2443 203.6686,13.9563 203.6686,24.6653 L203.6686,397.2273 C203.6686,408.1203 194.7626,417.3243 184.2216,417.3243 Z" id="Fill-6" fill="#212121"></path>
            <path d="M108.7674,397.0375 C108.7674,397.9355 107.9814,398.5975 107.0834,398.5975 L101.7934,398.5975 C100.8954,398.5975 100.2214,397.9355 100.2214,397.0375 L100.2214,391.7475 C100.2214,390.8495 100.8954,390.0515 101.7934,390.0515 L107.0834,390.0515 C107.9814,390.0515 108.7674,390.8495 108.7674,391.7475 L108.7674,397.0375 Z M107.0834,389.2375 L101.7934,389.2375 C100.4504,389.2375 99.4074,390.4045 99.4074,391.7475 L99.4074,397.0375 C99.4074,398.3805 100.4504,399.4115 101.7934,399.4115 L107.0834,399.4115 C108.4264,399.4115 109.5814,398.3805 109.5814,397.0375 L109.5814,391.7475 C109.5814,390.4045 108.4264,389.2375 107.0834,389.2375 Z M104.4384,408.5995 C96.6794,408.5995 90.3664,402.2875 90.3664,394.5275 C90.3664,386.7685 96.6794,380.4565 104.4384,380.4565 C112.1974,380.4565 118.5094,386.7685 118.5094,394.5275 C118.5094,402.2875 112.1974,408.5995 104.4384,408.5995 Z M104.4384,379.9455 C96.3974,379.9455 89.8554,386.4875 89.8554,394.5275 C89.8554,402.5685 96.3974,409.1105 104.4384,409.1105 C112.4794,409.1105 119.0214,402.5685 119.0214,394.5275 C119.0214,386.4875 112.4794,379.9455 104.4384,379.9455 Z" id="Fill-8" fill="#212121"></path>
            <path d="M92.4393,26.0294 C91.6023,26.0294 90.9203,26.7104 90.9203,27.5484 C90.9203,28.3854 91.6023,29.0664 92.4393,29.0664 L116.4373,29.0664 C117.2743,29.0664 117.9563,28.3854 117.9563,27.5484 C117.9563,26.7104 117.2743,26.0294 116.4373,26.0294 L92.4393,26.0294 Z M116.4373,29.7874 L92.4393,29.7874 C91.2043,29.7874 90.1993,28.7824 90.1993,27.5484 C90.1993,26.3134 91.2043,25.3084 92.4393,25.3084 L116.4373,25.3084 C117.6723,25.3084 118.6773,26.3134 118.6773,27.5484 C118.6773,28.7824 117.6723,29.7874 116.4373,29.7874 Z" id="Fill-10" fill="#212121"></path>
            <path d="M76.7982,25.0084 C75.3982,25.0084 74.2582,26.1474 74.2582,27.5484 C74.2582,28.9484 75.3982,30.0874 76.7982,30.0874 C78.1982,30.0874 79.3382,28.9484 79.3382,27.5484 C79.3382,26.1474 78.1982,25.0084 76.7982,25.0084 M76.7982,30.9364 C74.9302,30.9364 73.4102,29.4164 73.4102,27.5484 C73.4102,25.6794 74.9302,24.1594 76.7982,24.1594 C78.6662,24.1594 80.1862,25.6794 80.1862,27.5484 C80.1862,29.4164 78.6662,30.9364 76.7982,30.9364" id="Fill-12" fill="#212121"></path>
            <path d="M104.4383,14.0387 C103.3523,14.0387 102.4683,14.9227 102.4683,16.0087 C102.4683,17.0957 103.3523,17.9787 104.4383,17.9787 C105.5243,17.9787 106.4083,17.0957 106.4083,16.0087 C106.4083,14.9227 105.5243,14.0387 104.4383,14.0387 M104.4383,18.7567 C102.9233,18.7567 101.6903,17.5237 101.6903,16.0087 C101.6903,14.4937 102.9233,13.2617 104.4383,13.2617 C105.9533,13.2617 107.1863,14.4937 107.1863,16.0087 C107.1863,17.5237 105.9533,18.7567 104.4383,18.7567" id="Fill-14" fill="#212121"></path>
        </g>
    </g>
</svg>